<mxfile host="app.diagrams.net" modified="2023-07-25T19:57:21.692Z" agent="Mozilla/5.0 (Windows NT 10.0; Win64; x64) AppleWebKit/537.36 (KHTML, like Gecko) Chrome/115.0.0.0 Safari/537.36 Edg/115.0.1901.183" etag="R9DKQoJl65loSlQsOLvJ" version="21.6.5" type="device">
  <diagram name="Página-1" id="E98k81k_YQxK2NYrgeFt">
    <mxGraphModel dx="1235" dy="684" grid="1" gridSize="10" guides="1" tooltips="1" connect="1" arrows="1" fold="1" page="1" pageScale="1" pageWidth="827" pageHeight="1169" math="0" shadow="0">
      <root>
        <mxCell id="0" />
        <mxCell id="1" parent="0" />
        <mxCell id="oR1yMu0sfsY3Z2GQh70--1" value="E-Commerce - SenaiShop&#xa;&#xa;&#xa;Uma Loja possui várias categorias&#xa;Uma categoria possui subcategorias&#xa;Um produto possui uma subcategoria&#xa;Um cliente efetua um pedido&#xa;Um pedido pode ter 1 ou vários produtos" style="text;whiteSpace=wrap;" vertex="1" parent="1">
          <mxGeometry x="70" y="10" width="220" height="140" as="geometry" />
        </mxCell>
        <mxCell id="oR1yMu0sfsY3Z2GQh70--2" value="LOJA" style="html=1;whiteSpace=wrap;fillColor=#008a00;fontColor=#ffffff;strokeColor=#005700;" vertex="1" parent="1">
          <mxGeometry x="280" y="230" width="110" height="50" as="geometry" />
        </mxCell>
        <mxCell id="oR1yMu0sfsY3Z2GQh70--13" style="edgeStyle=orthogonalEdgeStyle;rounded=0;orthogonalLoop=1;jettySize=auto;html=1;entryX=0.5;entryY=1;entryDx=0;entryDy=0;endArrow=none;endFill=0;exitX=0.5;exitY=0;exitDx=0;exitDy=0;" edge="1" parent="1" source="oR1yMu0sfsY3Z2GQh70--6" target="oR1yMu0sfsY3Z2GQh70--11">
          <mxGeometry relative="1" as="geometry">
            <mxPoint x="330" y="690" as="sourcePoint" />
          </mxGeometry>
        </mxCell>
        <mxCell id="oR1yMu0sfsY3Z2GQh70--3" value="CATEGORIA" style="html=1;whiteSpace=wrap;fillColor=#008a00;fontColor=#ffffff;strokeColor=#005700;" vertex="1" parent="1">
          <mxGeometry x="280" y="440" width="110" height="50" as="geometry" />
        </mxCell>
        <mxCell id="oR1yMu0sfsY3Z2GQh70--6" value="SUBCATEGORIA" style="html=1;whiteSpace=wrap;fillColor=#008a00;fontColor=#ffffff;strokeColor=#005700;" vertex="1" parent="1">
          <mxGeometry x="280" y="660" width="110" height="50" as="geometry" />
        </mxCell>
        <mxCell id="oR1yMu0sfsY3Z2GQh70--36" style="edgeStyle=orthogonalEdgeStyle;rounded=0;orthogonalLoop=1;jettySize=auto;html=1;entryX=0.5;entryY=1;entryDx=0;entryDy=0;endArrow=none;endFill=0;" edge="1" parent="1" source="oR1yMu0sfsY3Z2GQh70--7" target="oR1yMu0sfsY3Z2GQh70--35">
          <mxGeometry relative="1" as="geometry" />
        </mxCell>
        <mxCell id="oR1yMu0sfsY3Z2GQh70--7" value="PRODUTO" style="html=1;whiteSpace=wrap;fillColor=#008a00;fontColor=#ffffff;strokeColor=#005700;" vertex="1" parent="1">
          <mxGeometry x="570" y="660" width="110" height="50" as="geometry" />
        </mxCell>
        <mxCell id="oR1yMu0sfsY3Z2GQh70--8" value="CLIENTE" style="html=1;whiteSpace=wrap;fillColor=#008a00;fontColor=#ffffff;strokeColor=#005700;" vertex="1" parent="1">
          <mxGeometry x="570" y="230" width="110" height="50" as="geometry" />
        </mxCell>
        <mxCell id="oR1yMu0sfsY3Z2GQh70--9" value="PEDIDO" style="html=1;whiteSpace=wrap;fillColor=#008a00;fontColor=#ffffff;strokeColor=#005700;" vertex="1" parent="1">
          <mxGeometry x="570" y="440" width="110" height="50" as="geometry" />
        </mxCell>
        <mxCell id="oR1yMu0sfsY3Z2GQh70--12" style="edgeStyle=orthogonalEdgeStyle;rounded=0;orthogonalLoop=1;jettySize=auto;html=1;endArrow=none;endFill=0;entryX=0.5;entryY=1;entryDx=0;entryDy=0;" edge="1" parent="1" source="oR1yMu0sfsY3Z2GQh70--11" target="oR1yMu0sfsY3Z2GQh70--3">
          <mxGeometry relative="1" as="geometry">
            <mxPoint x="330" y="500" as="targetPoint" />
          </mxGeometry>
        </mxCell>
        <mxCell id="oR1yMu0sfsY3Z2GQh70--11" value="possui" style="rhombus;whiteSpace=wrap;html=1;fillColor=#e1d5e7;strokeColor=#9673a6;" vertex="1" parent="1">
          <mxGeometry x="310" y="540" width="50" height="50" as="geometry" />
        </mxCell>
        <mxCell id="oR1yMu0sfsY3Z2GQh70--14" value="1" style="text;html=1;strokeColor=none;fillColor=none;align=center;verticalAlign=middle;whiteSpace=wrap;rounded=0;" vertex="1" parent="1">
          <mxGeometry x="340" y="500" width="20" height="20" as="geometry" />
        </mxCell>
        <mxCell id="oR1yMu0sfsY3Z2GQh70--15" value="n" style="text;html=1;strokeColor=none;fillColor=none;align=center;verticalAlign=middle;whiteSpace=wrap;rounded=0;" vertex="1" parent="1">
          <mxGeometry x="340" y="630" width="20" height="20" as="geometry" />
        </mxCell>
        <mxCell id="oR1yMu0sfsY3Z2GQh70--29" style="edgeStyle=orthogonalEdgeStyle;rounded=0;orthogonalLoop=1;jettySize=auto;html=1;endArrow=none;endFill=0;" edge="1" parent="1" source="oR1yMu0sfsY3Z2GQh70--28" target="oR1yMu0sfsY3Z2GQh70--2">
          <mxGeometry relative="1" as="geometry" />
        </mxCell>
        <mxCell id="oR1yMu0sfsY3Z2GQh70--30" style="edgeStyle=orthogonalEdgeStyle;rounded=0;orthogonalLoop=1;jettySize=auto;html=1;entryX=0.5;entryY=0;entryDx=0;entryDy=0;endArrow=none;endFill=0;" edge="1" parent="1" source="oR1yMu0sfsY3Z2GQh70--28" target="oR1yMu0sfsY3Z2GQh70--3">
          <mxGeometry relative="1" as="geometry" />
        </mxCell>
        <mxCell id="oR1yMu0sfsY3Z2GQh70--28" value="possui" style="rhombus;whiteSpace=wrap;html=1;fillColor=#e1d5e7;strokeColor=#9673a6;" vertex="1" parent="1">
          <mxGeometry x="310" y="330" width="50" height="50" as="geometry" />
        </mxCell>
        <mxCell id="oR1yMu0sfsY3Z2GQh70--33" value="1" style="text;html=1;strokeColor=none;fillColor=none;align=center;verticalAlign=middle;whiteSpace=wrap;rounded=0;" vertex="1" parent="1">
          <mxGeometry x="340" y="280" width="20" height="20" as="geometry" />
        </mxCell>
        <mxCell id="oR1yMu0sfsY3Z2GQh70--34" value="n" style="text;html=1;strokeColor=none;fillColor=none;align=center;verticalAlign=middle;whiteSpace=wrap;rounded=0;" vertex="1" parent="1">
          <mxGeometry x="340" y="410" width="20" height="20" as="geometry" />
        </mxCell>
        <mxCell id="oR1yMu0sfsY3Z2GQh70--37" style="edgeStyle=orthogonalEdgeStyle;rounded=0;orthogonalLoop=1;jettySize=auto;html=1;entryX=0.5;entryY=1;entryDx=0;entryDy=0;endArrow=none;endFill=0;" edge="1" parent="1" source="oR1yMu0sfsY3Z2GQh70--35" target="oR1yMu0sfsY3Z2GQh70--9">
          <mxGeometry relative="1" as="geometry">
            <mxPoint x="620" y="500" as="targetPoint" />
          </mxGeometry>
        </mxCell>
        <mxCell id="oR1yMu0sfsY3Z2GQh70--35" value="possui" style="rhombus;whiteSpace=wrap;html=1;fillColor=#e1d5e7;strokeColor=#9673a6;" vertex="1" parent="1">
          <mxGeometry x="600" y="550" width="50" height="50" as="geometry" />
        </mxCell>
        <mxCell id="oR1yMu0sfsY3Z2GQh70--38" value="1" style="text;html=1;strokeColor=none;fillColor=none;align=center;verticalAlign=middle;whiteSpace=wrap;rounded=0;" vertex="1" parent="1">
          <mxGeometry x="600" y="500" width="20" height="20" as="geometry" />
        </mxCell>
        <mxCell id="oR1yMu0sfsY3Z2GQh70--39" value="n" style="text;html=1;strokeColor=none;fillColor=none;align=center;verticalAlign=middle;whiteSpace=wrap;rounded=0;" vertex="1" parent="1">
          <mxGeometry x="600" y="630" width="20" height="20" as="geometry" />
        </mxCell>
        <mxCell id="oR1yMu0sfsY3Z2GQh70--40" style="edgeStyle=orthogonalEdgeStyle;rounded=0;orthogonalLoop=1;jettySize=auto;html=1;entryX=0.5;entryY=1;entryDx=0;entryDy=0;endArrow=none;endFill=0;exitX=0.5;exitY=0;exitDx=0;exitDy=0;" edge="1" target="oR1yMu0sfsY3Z2GQh70--42" parent="1" source="oR1yMu0sfsY3Z2GQh70--9">
          <mxGeometry relative="1" as="geometry">
            <mxPoint x="625" y="420" as="sourcePoint" />
          </mxGeometry>
        </mxCell>
        <mxCell id="oR1yMu0sfsY3Z2GQh70--41" style="edgeStyle=orthogonalEdgeStyle;rounded=0;orthogonalLoop=1;jettySize=auto;html=1;endArrow=none;endFill=0;entryX=0.5;entryY=1;entryDx=0;entryDy=0;" edge="1" source="oR1yMu0sfsY3Z2GQh70--42" parent="1" target="oR1yMu0sfsY3Z2GQh70--8">
          <mxGeometry relative="1" as="geometry">
            <mxPoint x="625" y="310" as="targetPoint" />
          </mxGeometry>
        </mxCell>
        <mxCell id="oR1yMu0sfsY3Z2GQh70--42" value="possui" style="rhombus;whiteSpace=wrap;html=1;fillColor=#e1d5e7;strokeColor=#9673a6;" vertex="1" parent="1">
          <mxGeometry x="600" y="330" width="50" height="50" as="geometry" />
        </mxCell>
        <mxCell id="oR1yMu0sfsY3Z2GQh70--44" value="1" style="text;html=1;strokeColor=none;fillColor=none;align=center;verticalAlign=middle;whiteSpace=wrap;rounded=0;" vertex="1" parent="1">
          <mxGeometry x="600" y="410" width="20" height="20" as="geometry" />
        </mxCell>
        <mxCell id="oR1yMu0sfsY3Z2GQh70--47" value="1" style="text;html=1;strokeColor=none;fillColor=none;align=center;verticalAlign=middle;whiteSpace=wrap;rounded=0;" vertex="1" parent="1">
          <mxGeometry x="600" y="290" width="20" height="20" as="geometry" />
        </mxCell>
        <mxCell id="oR1yMu0sfsY3Z2GQh70--51" style="edgeStyle=orthogonalEdgeStyle;rounded=0;orthogonalLoop=1;jettySize=auto;html=1;endArrow=none;endFill=0;" edge="1" parent="1" source="oR1yMu0sfsY3Z2GQh70--50" target="oR1yMu0sfsY3Z2GQh70--7">
          <mxGeometry relative="1" as="geometry" />
        </mxCell>
        <mxCell id="oR1yMu0sfsY3Z2GQh70--52" style="edgeStyle=orthogonalEdgeStyle;rounded=0;orthogonalLoop=1;jettySize=auto;html=1;entryX=1;entryY=0.5;entryDx=0;entryDy=0;endArrow=none;endFill=0;" edge="1" parent="1" source="oR1yMu0sfsY3Z2GQh70--50" target="oR1yMu0sfsY3Z2GQh70--6">
          <mxGeometry relative="1" as="geometry" />
        </mxCell>
        <mxCell id="oR1yMu0sfsY3Z2GQh70--50" value="possui" style="rhombus;whiteSpace=wrap;html=1;fillColor=#e1d5e7;strokeColor=#9673a6;" vertex="1" parent="1">
          <mxGeometry x="460" y="660" width="50" height="50" as="geometry" />
        </mxCell>
        <mxCell id="oR1yMu0sfsY3Z2GQh70--53" value="1" style="text;html=1;strokeColor=none;fillColor=none;align=center;verticalAlign=middle;whiteSpace=wrap;rounded=0;" vertex="1" parent="1">
          <mxGeometry x="394" y="660" width="20" height="20" as="geometry" />
        </mxCell>
        <mxCell id="oR1yMu0sfsY3Z2GQh70--54" value="1" style="text;html=1;strokeColor=none;fillColor=none;align=center;verticalAlign=middle;whiteSpace=wrap;rounded=0;" vertex="1" parent="1">
          <mxGeometry x="550" y="660" width="20" height="20" as="geometry" />
        </mxCell>
        <mxCell id="oR1yMu0sfsY3Z2GQh70--57" style="edgeStyle=orthogonalEdgeStyle;rounded=0;orthogonalLoop=1;jettySize=auto;html=1;entryX=1;entryY=0.5;entryDx=0;entryDy=0;endArrow=none;endFill=0;curved=1;" edge="1" parent="1" source="oR1yMu0sfsY3Z2GQh70--56" target="oR1yMu0sfsY3Z2GQh70--9">
          <mxGeometry relative="1" as="geometry" />
        </mxCell>
        <mxCell id="oR1yMu0sfsY3Z2GQh70--56" value="numero" style="ellipse;whiteSpace=wrap;html=1;fillColor=#0050ef;fontColor=#ffffff;strokeColor=#001DBC;" vertex="1" parent="1">
          <mxGeometry x="720" y="400" width="70" height="50" as="geometry" />
        </mxCell>
        <mxCell id="oR1yMu0sfsY3Z2GQh70--60" style="edgeStyle=orthogonalEdgeStyle;rounded=0;orthogonalLoop=1;jettySize=auto;html=1;endArrow=none;endFill=0;curved=1;" edge="1" parent="1" source="oR1yMu0sfsY3Z2GQh70--58" target="oR1yMu0sfsY3Z2GQh70--7">
          <mxGeometry relative="1" as="geometry" />
        </mxCell>
        <mxCell id="oR1yMu0sfsY3Z2GQh70--58" value="nome" style="ellipse;whiteSpace=wrap;html=1;fillColor=#0050ef;fontColor=#ffffff;strokeColor=#001DBC;" vertex="1" parent="1">
          <mxGeometry x="720" y="620" width="70" height="50" as="geometry" />
        </mxCell>
        <mxCell id="oR1yMu0sfsY3Z2GQh70--61" style="edgeStyle=orthogonalEdgeStyle;rounded=0;orthogonalLoop=1;jettySize=auto;html=1;entryX=1;entryY=0.5;entryDx=0;entryDy=0;endArrow=none;endFill=0;curved=1;" edge="1" parent="1" source="oR1yMu0sfsY3Z2GQh70--59" target="oR1yMu0sfsY3Z2GQh70--7">
          <mxGeometry relative="1" as="geometry" />
        </mxCell>
        <mxCell id="oR1yMu0sfsY3Z2GQh70--59" value="valor" style="ellipse;whiteSpace=wrap;html=1;fillColor=#0050ef;fontColor=#ffffff;strokeColor=#001DBC;" vertex="1" parent="1">
          <mxGeometry x="720" y="700" width="70" height="50" as="geometry" />
        </mxCell>
      </root>
    </mxGraphModel>
  </diagram>
</mxfile>
